<svg width="82" height="64" viewBox="0 0 82 64" fill="none" xmlns="http://www.w3.org/2000/svg">
<path d="M0.552199 56.813C0.249101 57.2747 0.377659 57.8947 0.839341 58.1978L8.36288 63.137C8.82457 63.4401 9.44454 63.3116 9.74764 62.8499C10.0507 62.3882 9.92218 61.7682 9.4605 61.4651L2.7729 57.0747L7.16336 50.3871C7.46646 49.9254 7.3379 49.3054 6.87622 49.0023C6.41453 48.6992 5.79456 48.8278 5.49146 49.2895L0.552199 56.813ZM48.3425 10.92L47.9513 11.8403L48.3425 10.92ZM23.9829 49.2629L24.5218 50.1053L23.9829 49.2629ZM64.0337 19.4671L64.6125 20.2826L64.0337 19.4671ZM25.5551 30.0503L26.5277 29.8177L25.5551 30.0503ZM1.38815 57.3618C1.59119 58.341 1.59121 58.341 1.59124 58.341C1.59126 58.341 1.59129 58.341 1.59132 58.341C1.59137 58.341 1.59144 58.3409 1.59151 58.3409C1.59167 58.3409 1.59186 58.3409 1.5921 58.3408C1.59259 58.3407 1.59325 58.3406 1.59409 58.3404C1.59576 58.34 1.59815 58.3396 1.60124 58.3389C1.60741 58.3376 1.61638 58.3357 1.62811 58.3333C1.65155 58.3283 1.68598 58.321 1.73092 58.3114C1.82081 58.2922 1.95278 58.2636 2.12309 58.2259C2.46369 58.1504 2.9578 58.0384 3.57551 57.8912L3.11187 55.9457C2.50544 56.0902 2.02178 56.1999 1.69064 56.2732C1.52509 56.3099 1.3977 56.3374 1.31219 56.3557C1.26944 56.3649 1.23716 56.3717 1.21583 56.3762C1.20516 56.3785 1.19723 56.3801 1.19209 56.3812C1.18952 56.3817 1.18765 56.3821 1.18648 56.3824C1.1859 56.3825 1.18549 56.3826 1.18526 56.3826C1.18515 56.3827 1.18508 56.3827 1.18505 56.3827C1.18504 56.3827 1.18504 56.3827 1.18505 56.3827C1.18505 56.3827 1.18507 56.3827 1.18507 56.3827C1.18509 56.3827 1.18511 56.3827 1.38815 57.3618ZM7.50284 56.8833C8.69835 56.555 10.0143 56.1738 11.3898 55.7425L10.7914 53.8341C9.44198 54.2572 8.14925 54.6317 6.97323 54.9547L7.50284 56.8833ZM15.2403 54.4453C16.5131 53.9837 17.792 53.4837 19.0338 52.9471L18.2404 51.1112C17.0415 51.6293 15.8005 52.1147 14.5585 52.5651L15.2403 54.4453ZM22.7334 51.1595C23.355 50.8201 23.9538 50.4687 24.5218 50.1053L23.4441 48.4205C22.9199 48.7558 22.3615 49.0839 21.7749 49.4041L22.7334 51.1595ZM24.5218 50.1053C25.0462 49.7698 25.5834 49.4195 26.1311 49.0555L25.024 47.3899C24.4858 47.7476 23.9584 48.0915 23.4441 48.4205L24.5218 50.1053ZM29.3001 46.8772C30.3185 46.1544 31.3573 45.3956 32.4044 44.6071L31.2013 43.0095C30.1694 43.7865 29.1458 44.5342 28.1426 45.2462L29.3001 46.8772ZM35.4437 42.2506C36.4393 41.4556 37.4324 40.6391 38.4128 39.8062L37.1179 38.2819C36.1538 39.101 35.1764 39.9047 34.1957 40.6877L35.4437 42.2506ZM41.3059 37.2638C42.2664 36.3893 43.2038 35.5029 44.1073 34.61L42.7015 33.1874C41.8191 34.0595 40.9016 34.9271 39.9595 35.7849L41.3059 37.2638ZM46.7915 31.8235C47.6903 30.8389 48.5367 29.8517 49.3159 28.8692L47.749 27.6264C47.0022 28.568 46.1863 29.5199 45.3144 30.4752L46.7915 31.8235ZM51.6001 25.6913C52.3578 24.5058 52.9958 23.3297 53.481 22.1775L51.6377 21.4013C51.2057 22.4273 50.6255 23.5023 49.9149 24.6143L51.6001 25.6913ZM54.5093 18.1833C54.6135 16.6859 54.3475 15.249 53.6069 13.9462L51.8682 14.9346C52.3869 15.847 52.5951 16.8808 52.5141 18.0444L54.5093 18.1833ZM50.5776 10.9426C50.0218 10.6004 49.4074 10.2861 48.7337 9.99969L47.9513 11.8403C48.5436 12.0921 49.0676 12.3616 49.529 12.6457L50.5776 10.9426ZM48.7337 9.99969C48.1266 9.74163 47.523 9.51833 46.9236 9.32842L46.3195 11.235C46.8571 11.4053 47.4012 11.6065 47.9513 11.8403L48.7337 9.99969ZM43.1359 8.55443C41.7976 8.43193 40.4972 8.47411 39.2463 8.66089L39.5416 10.639C40.6349 10.4757 41.775 10.4382 42.9536 10.5461L43.1359 8.55443ZM35.4935 9.69946C34.2842 10.1973 33.1488 10.8336 32.0995 11.5808L33.2596 13.21C34.1907 12.5469 35.193 11.9861 36.2549 11.5488L35.4935 9.69946ZM29.2075 14.1436C28.3363 15.0941 27.5628 16.1315 26.8995 17.2294L28.6113 18.2637C29.2074 17.277 29.9017 16.3462 30.6819 15.495L29.2075 14.1436ZM25.2412 20.708C24.8022 21.9289 24.4898 23.1893 24.3191 24.4618L26.3013 24.7279C26.4525 23.6009 26.7301 22.478 27.1233 21.3846L25.2412 20.708ZM24.2531 28.3511C24.321 29.0002 24.4301 29.6455 24.5825 30.2828L26.5277 29.8177C26.3961 29.2673 26.3014 28.708 26.2422 28.1429L24.2531 28.3511ZM24.5825 30.2828C24.7566 31.0106 24.9919 31.6736 25.2893 32.2713L27.08 31.3806C26.8579 30.9342 26.6709 30.4164 26.5277 29.8177L24.5825 30.2828ZM28.3351 35.336C29.5525 35.9259 30.9501 36.1568 32.4386 36.1333L32.407 34.1336C31.1349 34.1536 30.0676 33.9531 29.2072 33.5362L28.3351 35.336ZM36.3652 35.5913C37.5568 35.3066 38.7977 34.919 40.0693 34.4508L39.3782 32.574C38.1648 33.0208 37.0004 33.3832 35.9004 33.6461L36.3652 35.5913ZM43.601 32.9893C44.7291 32.4761 45.8727 31.9154 47.0212 31.3194L46.0999 29.5442C44.9777 30.1266 43.8653 30.6718 42.7728 31.1689L43.601 32.9893ZM50.3525 29.5045C51.4456 28.8826 52.535 28.2384 53.6116 27.5821L52.5706 25.8744C51.5092 26.5214 50.4372 27.1553 49.3634 27.7662L50.3525 29.5045ZM56.8131 25.5745C57.8907 24.8809 58.9453 24.1848 59.9668 23.4973L58.8502 21.838C57.8387 22.5188 56.7955 23.2073 55.7306 23.8928L56.8131 25.5745ZM63.0762 21.3644C63.6025 20.9968 64.1152 20.6356 64.6125 20.2826L63.455 18.6517C62.9615 19.0019 62.4529 19.3602 61.9311 19.7247L63.0762 21.3644ZM64.6125 20.2826C65.2129 19.8565 65.797 19.4241 66.3648 18.9871L65.1451 17.4021C64.5971 17.8238 64.0338 18.2408 63.455 18.6517L64.6125 20.2826ZM69.7082 16.2086C70.833 15.2014 71.8773 14.1895 72.8422 13.1927L71.4053 11.8017C70.4713 12.7664 69.4612 13.7451 68.374 14.7187L69.7082 16.2086ZM75.7541 9.96811C76.7776 8.75286 77.6712 7.59876 78.4372 6.5484L76.8213 5.36988C76.0805 6.38568 75.2155 7.50287 74.2244 8.67974L75.7541 9.96811ZM80.8665 2.93771C81.2313 2.3441 81.5046 1.86944 81.6881 1.54069C81.7798 1.37631 81.849 1.24836 81.896 1.16023C81.9195 1.11616 81.9374 1.08204 81.9498 1.05829C81.956 1.04642 81.9608 1.03713 81.9642 1.03049C81.9659 1.02717 81.9673 1.02451 81.9683 1.02252C81.9688 1.02153 81.9693 1.0207 81.9696 1.02004C81.9698 1.01971 81.9699 1.01942 81.97 1.01918C81.9701 1.01905 81.9702 1.01894 81.9702 1.01884C81.9702 1.01878 81.9703 1.01872 81.9703 1.01869C81.9703 1.01862 81.9703 1.01856 81.0796 0.564148C80.1888 0.109739 80.1888 0.109678 80.1888 0.109625C80.1888 0.10961 80.1889 0.109556 80.1889 0.109526C80.1889 0.109467 80.1889 0.109419 80.1889 0.109375C80.189 0.109299 80.189 0.109261 80.189 0.109267C80.189 0.109276 80.1889 0.109451 80.1887 0.109797C80.1884 0.110479 80.1877 0.111825 80.1867 0.113833C80.1846 0.117842 80.1812 0.124477 80.1764 0.13369C80.1667 0.152116 80.1517 0.180839 80.1311 0.219442C80.0899 0.296654 80.0268 0.41337 79.9415 0.566254C79.7709 0.872053 79.5117 1.32238 79.1625 1.89055L80.8665 2.93771Z" fill="white" fill-opacity="0.5"/>
</svg>
