<svg width="260" height="80" viewBox="0 0 260 80" fill="none" xmlns="http://www.w3.org/2000/svg">
<rect x="0.5" y="0.5" width="259" height="79" rx="19.5" stroke="#7FAE26"/>
<line y1="-0.5" x2="22.8345" y2="-0.5" transform="matrix(0.681231 0.732069 -0.681231 0.732069 5.55566 63.2836)" stroke="#7FAE26"/>
<line y1="-0.5" x2="22.8345" y2="-0.5" transform="matrix(0.681231 0.732069 -0.681231 0.732069 16.6667 63.2836)" stroke="#7FAE26"/>
<line y1="-0.5" x2="22.8345" y2="-0.5" transform="matrix(0.681231 0.732069 -0.681231 0.732069 27.7778 63.2836)" stroke="#7FAE26"/>
<line y1="-0.5" x2="22.8345" y2="-0.5" transform="matrix(0.681231 0.732069 -0.681231 0.732069 38.8889 63.2836)" stroke="#7FAE26"/>
<line y1="-0.5" x2="22.8345" y2="-0.5" transform="matrix(0.681231 0.732069 -0.681231 0.732069 50 63.2836)" stroke="#7FAE26"/>
<line y1="-0.5" x2="22.8345" y2="-0.5" transform="matrix(0.681231 0.732069 -0.681231 0.732069 61.1111 63.2836)" stroke="#7FAE26"/>
<line y1="-0.5" x2="22.8345" y2="-0.5" transform="matrix(0.681231 0.732069 -0.681231 0.732069 72.2222 63.2836)" stroke="#7FAE26"/>
<line y1="-0.5" x2="22.8345" y2="-0.5" transform="matrix(0.681231 0.732069 -0.681231 0.732069 83.3333 63.2836)" stroke="#7FAE26"/>
<line y1="-0.5" x2="22.8345" y2="-0.5" transform="matrix(0.681231 0.732069 -0.681231 0.732069 94.4446 63.2836)" stroke="#7FAE26"/>
<line y1="-0.5" x2="22.8345" y2="-0.5" transform="matrix(0.681231 0.732069 -0.681231 0.732069 105.556 63.2836)" stroke="#7FAE26"/>
<line y1="-0.5" x2="22.8345" y2="-0.5" transform="matrix(0.681231 0.732069 -0.681231 0.732069 116.667 63.2836)" stroke="#7FAE26"/>
<line y1="-0.5" x2="22.8345" y2="-0.5" transform="matrix(0.681231 0.732069 -0.681231 0.732069 127.778 63.2836)" stroke="#7FAE26"/>
<line y1="-0.5" x2="22.8345" y2="-0.5" transform="matrix(0.681231 0.732069 -0.681231 0.732069 138.889 63.2836)" stroke="#7FAE26"/>
<line y1="-0.5" x2="22.8345" y2="-0.5" transform="matrix(0.681231 0.732069 -0.681231 0.732069 150 63.2836)" stroke="#7FAE26"/>
<line y1="-0.5" x2="22.8345" y2="-0.5" transform="matrix(0.681231 0.732069 -0.681231 0.732069 161.111 63.2836)" stroke="#7FAE26"/>
<line y1="-0.5" x2="22.8345" y2="-0.5" transform="matrix(0.681231 0.732069 -0.681231 0.732069 172.222 63.2836)" stroke="#7FAE26"/>
<line y1="-0.5" x2="22.8345" y2="-0.5" transform="matrix(0.681231 0.732069 -0.681231 0.732069 183.333 63.2836)" stroke="#7FAE26"/>
<line y1="-0.5" x2="22.8345" y2="-0.5" transform="matrix(0.681231 0.732069 -0.681231 0.732069 194.445 63.2836)" stroke="#7FAE26"/>
<line y1="-0.5" x2="22.8345" y2="-0.5" transform="matrix(0.681231 0.732069 -0.681231 0.732069 205.556 63.2836)" stroke="#7FAE26"/>
<line y1="-0.5" x2="22.8345" y2="-0.5" transform="matrix(0.681231 0.732069 -0.681231 0.732069 216.667 63.2836)" stroke="#7FAE26"/>
<line y1="-0.5" x2="21.2035" y2="-0.5" transform="matrix(0.681231 0.732069 -0.681231 0.732069 227.778 63.2836)" stroke="#7FAE26"/>
<line y1="-0.5" x2="16.3104" y2="-0.5" transform="matrix(0.681231 0.732069 -0.681231 0.732069 238.889 63.2836)" stroke="#7FAE26"/>
<line y1="-0.5" x2="19.5724" y2="-0.5" transform="matrix(0.681231 0.732069 -0.681231 0.732069 242.222 54.9254)" stroke="#7FAE26"/>
<line y1="-0.5" x2="21.2035" y2="-0.5" transform="matrix(0.681231 0.732069 -0.681231 0.732069 244.445 45.3731)" stroke="#7FAE26"/>
<line y1="-0.5" x2="22.0925" y2="-0.5" transform="matrix(0.653815 0.756654 -0.653815 0.756654 244.445 33.4328)" stroke="#7FAE26"/>
<line y1="-0.5" x2="22.0925" y2="-0.5" transform="matrix(0.653815 0.756654 -0.653815 0.756654 244.445 21.4925)" stroke="#7FAE26"/>
<line y1="-0.5" x2="22.0925" y2="-0.5" transform="matrix(0.653815 0.756654 -0.653815 0.756654 244.445 9.55225)" stroke="#7FAE26"/>
</svg>
